/* XPM */
static char*gnome[]={
"32 32 81 2",
".3 c #e0e0d8",
"## c #484c50",
".z c #282c20",
".2 c #e8e8e0",
".D c #b8bcb8",
".d c #c0bcb8",
"#. c #f8f8f0",
".8 c #c8c4c0",
"#n c #606468",
"#a c #c8ccc8",
".u c #d0ccc8",
"#j c #383840",
".x c #484c40",
".B c #d8d4d0",
".A c #d8dcd8",
".V c #e0dcd8",
".c c #e0e4e0",
".j c #e8e4e0",
".Z c #e8ece8",
".J c #f0ece8",
".v c #686458",
".b c #f0f4f0",
".W c #f8f4f0",
".g c #f8fcf8",
"#e c #807c70",
".X c #d8d8d8",
".a c #b8b0a0",
"#h c #888478",
".r c #e0e0e0",
".M c #908c80",
".C c #605850",
".o c #e8e8e8",
"#d c #988c80",
".U c #606058",
".1 c #989488",
".n c #000000",
".F c #f0f0f0",
".h c #a09c90",
".i c #f8f8f8",
"#g c #787068",
".S c #a8a498",
".y c #787870",
".f c #484440",
"#f c #b0aca0",
".T c #807870",
".e c #b8aca0",
".P c #504c48",
".I c #808078",
".w c #888078",
".# c #b8b4a8",
"#k c #505450",
".E c #c0b4a8",
"#b c #585450",
".9 c #888880",
".Y c #908880",
".O c #c0bcb0",
".N c #c8bcb0",
".k c #c8c4b8",
".7 c #a09890",
".K c #d0ccc0",
".t c #a8a098",
".s c #d8d4c8",
"#m c #707470",
"#i c #787470",
".L c #a8a8a0",
".l c #b0a8a0",
"Qt c None",
".m c #181c20",
"#o c #808480",
".4 c #c0b8b0",
".Q c #c8c0b8",
".R c #c8c8c0",
".p c #d0c8c0",
"#l c #989c98",
".6 c #706868",
".5 c #a09c98",
".0 c #d0d0c8",
".H c #d8d0c8",
".q c #a89c98",
".G c #d8d8d0",
"#c c #e0d8d0",
"QtQtQtQtQtQtQtQtQtQtQtQtQtQtQtQtQtQtQtQtQtQtQtQtQtQtQtQtQtQtQtQt",
"QtQtQtQtQtQtQtQtQtQtQtQtQtQtQtQtQtQtQtQtQtQtQtQtQtQtQtQtQtQtQtQt",
"QtQtQtQtQtQtQtQtQtQtQtQtQtQtQt.#.#.aQtQtQtQtQtQtQtQtQtQtQtQtQtQt",
"QtQtQtQtQtQtQtQtQtQtQtQtQtQt.b.c.d.e.fQtQtQtQtQtQtQtQtQtQtQtQtQt",
"QtQtQtQtQtQtQtQtQt.g.#.hQtQt.i.j.k.l.m.nQtQtQtQtQtQtQtQtQtQtQtQt",
"QtQtQtQtQtQtQtQt.o.g.p.q.nQt.r.s.l.t.m.mQtQtQtQtQtQtQtQtQtQtQtQt",
"QtQtQtQtQtQtQtQt.u.u.t.v.mQtQt.t.w.v.m.mQtQtQtQtQtQtQtQtQtQtQtQt",
"QtQtQtQtQtQtQtQtQt.l.x.m.mQtQt.y.z.m.mQtQtQtQtQtQtQtQtQtQtQtQtQt",
"QtQtQtQtQtQtQtQtQt.m.m.mQtQtQtQtQtQtQtQtQtQtQtQtQtQtQtQtQtQtQtQt",
"QtQtQtQtQtQt.c.pQtQtQtQtQtQtQtQtQtQtQtQtQtQtQtQtQtQtQtQtQtQtQtQt",
"QtQtQtQtQt.A.B.C.mQtQtQtQtQtQtQtQt.DQtQtQtQtQtQtQtQtQtQtQtQtQtQt",
"QtQtQtQtQt.c.E.m.mQtQtQtQtQt.F.b.F.G.B.H.IQtQtQtQtQtQtQtQtQtQtQt",
"QtQtQtQtQtQt.m.mQtQtQtQt.i.J.K.K.l.L.M.N.m.mQtQtQtQtQtQtQtQtQtQt",
"QtQtQtQtQtQtQtQtQtQtQt.g.B.u.e.#.p.l.O.P.m.mQtQtQtQtQtQtQtQtQtQt",
"QtQtQtQtQtQt.I.IQtQtQt.g.u.Q.R.p.k.k.S.T.m.UQtQtQtQtQtQtQtQtQtQt",
"QtQtQtQtQt.V.h.vQtQt.W.X.K.K.p.p.p.p.Y.m.mQtQtQtQtQtQtQtQtQtQtQt",
"QtQtQtQtQt.v.m.mQt.Z.j.0.Q.K.#.#.v.m.m.mQtQtQtQtQtQtQtQtQtQtQtQt",
"QtQtQtQtQtQt.mQtQt.B.V.s.G.p.G.1.m.mQtQtQtQtQtQtQtQtQtQtQtQtQtQt",
"QtQtQtQtQtQtQtQtQt.u.2.s.k.k.q.m.mQtQtQtQtQtQt.o.3.VQtQtQtQtQtQt",
"QtQtQtQtQtQtQtQtQt.G.g.r.4.p.w.mQtQtQtQtQtQt.H.Z.o.B.5QtQtQtQtQt",
"QtQtQtQtQtQtQtQtQt.c.2.H.Q.E.U.mQtQtQtQtQtQt.i.r.K.k.U.mQtQtQtQt",
"QtQtQtQtQtQtQtQtQt.F.G.o.p.N.6.mQtQtQtQtQtQt.V.p.Q.l.m.mQtQtQtQt",
"QtQtQtQtQtQtQtQtQtQt.N.V.Q.#.h.6QtQtQtQtQt.A.Z.u.E.7.m.mQtQtQtQt",
"QtQtQtQtQtQtQtQtQtQt.#.H.8.Q.#.9.tQtQtQtQt.b#..K.4.q.m##QtQtQtQt",
"QtQtQtQtQtQtQtQtQtQt#a.Q.u.N.Q.N.E.p.j.3.Z.g.G.j.q#b.mQtQtQtQtQt",
"QtQtQtQtQtQtQtQtQtQtQt.e.K.Q.Q.N.B#c.r.G.i.W.3.G#d.m.mQtQtQtQtQt",
"QtQtQtQtQtQtQtQtQtQtQtQt.h.1.O.N.p.p.t.p.k#c.N.#.m.mQtQtQtQtQtQt",
"QtQtQtQtQtQtQtQtQtQtQtQt#e.7.E.d.Q.G.E.Q.K.R.#.Y.m.mQtQtQtQtQtQt",
"QtQtQtQtQtQtQtQtQtQtQtQtQtQt.w.w.7#f.l.l.4.t.m.m.zQtQtQtQtQtQtQt",
"QtQtQtQtQtQtQtQtQtQtQtQtQtQt.I.U#g.w#d.h#h#i.m.mQtQtQtQtQtQtQtQt",
"QtQtQtQtQtQtQtQtQtQtQtQtQtQtQtQtQt#j.m.m.m.m#kQtQtQtQtQtQtQtQtQt",
"QtQtQtQtQtQtQtQtQtQtQtQtQtQtQtQtQtQt#l#m#n#oQtQtQtQtQtQtQtQtQtQt"};
