/* XPM */
static char*kde[]={
"32 32 197 2",
"#T c #968e7e",
"a2 c #f4f4f4",
"#Q c #a7a197",
".9 c #f2f3f1",
"#B c #f3f3f1",
"#b c #dedcd7",
"#F c #aaa083",
".1 c #cbcbca",
".w c #f2eff0",
".P c #4a4a4a",
"ae c #d39a54",
".x c #fbfbf9",
".O c #8a8888",
"a0 c #9a9892",
"aY c #9c9892",
".K c #e0e0de",
".M c #aeaea9",
".J c #5b5550",
"ad c #a67943",
"aP c #b6b3b3",
".d c #cecdcb",
"a1 c #f1f1f1",
"#2 c #b99258",
"af c #a17542",
"a6 c #c8c9ca",
"ba c #d6d6d6",
"ay c #b8b5ae",
"ab c #f0f0ee",
"aH c #b48b59",
"#f c #999795",
"#p c #ebebd9",
"aT c #d9c2a9",
"at c #e3d5c2",
".U c #f5f8f6",
".Q c #ebebea",
".k c #f8f8f6",
"au c #888585",
"#5 c #ca9350",
"#J c #968e7f",
"a8 c #bfb9b5",
"aZ c #97948c",
"aN c #e9e9e4",
"aJ c #d1cfcc",
"#3 c #958d7c",
".N c #f2f3f2",
"ag c #4d4e4c",
"b# c #7d7570",
"ax c #eeeeee",
".# c #232224",
"as c #cb9654",
".8 c #ededeb",
".l c #fafaf7",
"aq c #827668",
"aD c #564b43",
"aU c #e2cbaf",
"#4 c #ae7d45",
"az c #c5c3be",
"bc c #c5c0c0",
".H c #e7e4e6",
".Z c #928e8b",
"ao c #c9c9cb",
".6 c #c2bfbd",
"#h c #fdfdfb",
".c c #555454",
"#M c #e9eae8",
"#S c #fee2a2",
"#P c #cecfcd",
".h c #5c5c5c",
"an c #d9d9db",
".B c #e8e9e5",
"#O c #615f5a",
"#L c #746957",
"#A c #524f50",
"a# c #a89a89",
"#n c #d0ceca",
"#a c #9f9688",
".L c #676762",
"ak c #d8d7d5",
".0 c #eeeeef",
"a9 c #b8b2ac",
".V c #dfdfdd",
"ai c #2e2d2b",
".S c #8e8982",
"#X c #f5f5f4",
"#g c #a9a9a7",
".G c #dddad9",
"aK c #aca8a4",
".g c #000000",
"#W c #80807d",
".p c #fdfdfc",
".2 c #fefdfc",
"aI c #e0cfb7",
"#0 c #c1aa7d",
"#w c #cbcbc7",
"aR c #c1bebb",
"#E c #dad8d3",
"aV c #e4d5c4",
"aa c #e0b068",
".m c #f7f7f5",
"aF c #635341",
"aW c #e5e0db",
"#t c #8f8a80",
".f c #cfcfce",
".X c #e9e9e6",
".4 c #414142",
"#q c #fefee9",
"aB c #979288",
"#G c #e8e5b8",
"a. c #d3cdc8",
"#K c #866134",
".E c #4d4c48",
"#i c #e3e3df",
".v c #3b3b3b",
".5 c #9c9792",
"al c #b4a48d",
"b. c #807c77",
"#1 c #f7c880",
"am c #b28755",
"#Y c #f8f8f3",
"ah c #dbddd8",
"#Z c #b7b6b4",
".7 c #dcdada",
"a3 c #d4d0cc",
".C c #94918b",
".A c #dcd9d7",
"a5 c #dfdfe4",
"#j c #666563",
".e c #e5e5e0",
"#k c #686563",
".j c #fcfcfa",
"#m c #cecdc3",
"#7 c #bbb9b8",
"aX c #d1d0d2",
"#9 c #545250",
"bb c #c8c5c1",
"ap c #aeada4",
"aQ c #cdcecc",
"#H c #cbb98b",
"#u c #4e473f",
".t c #414040",
"#o c #9e9885",
"aC c #514d4c",
"#s c #f1f1ef",
"#e c #f2f1ef",
"#c c #fefefb",
"#y c #b8b2ae",
"aA c #dddfdf",
"#d c #cbcbc3",
".o c #f9f9f7",
"Qt c None",
".R c #979392",
".3 c #d1d1d0",
".Y c #bcbab6",
"aj c #bdbab6",
".D c #211f1e",
".r c #4f5050",
"#x c #5d5d5c",
".s c #8e8881",
"av c #747476",
"aO c #c3c2be",
".W c #f2f3f0",
"aS c #cdbfaf",
"#l c #f3f3f0",
"## c #d3cfca",
"#N c #d8d8d5",
"a4 c #e3e2e3",
"#D c #d0cbc9",
".F c #aeb0ae",
"#v c #c5c7c8",
"#C c #fbfbf8",
"#V c #855e32",
".y c #f7f7f7",
".u c #706d6c",
"#z c #cdc6c5",
"#U c #ab7e46",
"#6 c #553f27",
"aL c #605f5d",
"ac c #968d80",
".z c #eae9e8",
".n c #f6f6f4",
".a c #2a2a2a",
"#8 c #dbdbd9",
"#R c #dacc94",
"aE c #5c4e3f",
"#r c #fef9c5",
"a7 c #4e4d4d",
".q c #f1f1f0",
".i c #fefefc",
".b c #252526",
"#. c #343232",
".I c #948e89",
"#I c #eff0ed",
"aG c #7b6044",
".T c #bcbbba",
"ar c #a4743e",
"aw c #ececec",
"aM c #ebebe9",
"QtQtQtQtQtQtQtQtQtQtQtQtQtQtQtQtQtQtQtQtQtQtQtQtQtQtQtQtQtQtQtQt",
"QtQtQtQtQtQtQtQtQtQtQtQtQtQtQtQtQtQtQtQtQtQtQtQtQtQtQtQtQtQtQtQt",
"QtQtQtQtQtQtQtQtQtQtQtQtQtQtQtQtQtQtQtQtQtQtQtQtQtQtQtQtQtQtQtQt",
"QtQtQtQtQtQtQtQtQtQtQtQtQtQt.#.a.bQtQtQtQtQtQtQtQtQtQtQtQtQtQtQt",
"QtQtQtQtQtQtQtQtQtQtQtQtQt.c.d.e.f.gQtQtQtQtQt.c.c.hQtQtQtQtQtQt",
"QtQtQtQtQtQtQtQtQtQtQtQtQt.g.i.i.f.gQtQtQtQt.c.j.i.k.cQtQtQtQtQt",
"QtQtQtQtQtQtQtQtQtQtQtQtQt.g.i.i.f.gQtQtQt.c.l.i.i.m.cQtQtQtQtQt",
"QtQtQtQtQtQtQtQt.g.gQtQtQt.g.i.i.f.gQtQt.c.n.i.i.o.cQtQtQtQtQtQt",
"QtQtQtQtQtQtQt.g.p.q.g.r.s.g.i.i.f.t.u.v.w.i.i.x.cQtQtQtQtQtQtQt",
"QtQtQtQtQtQtQt.g.y.z.A.B.C.g.i.i.f.D.E.F.x.i.i.cQtQtQtQtQtQtQtQt",
"QtQtQtQtQtQtQtQt.g.G.H.I.J.g.i.i.K.L.M.N.i.i.c.OQtQtQtQtQtQtQtQt",
"QtQtQtQtQtQtQtQt.P.Q.R.S.T.g.i.i.U.V.W.i.i.X.cQtQtQtQtQtQtQtQtQt",
"QtQtQtQtQtQtQtQt.g.Y.Z.0.1.g.i.i.i.2.i.i.i.3.4QtQtQtQtQtQtQtQtQt",
"QtQtQtQtQtQtQtQt.g.5.6.j.1.g.i.i.k.7.8.i.i.9.c#.QtQtQtQtQtQtQtQt",
"QtQtQtQtQt.g.g.g###a#b#c#d.g.i.i#e#f#g.k.i#h#i#j#k.g.gQtQtQtQtQt",
"QtQtQtQt.g#l#h#m#n#o#p#q#r.c.i.i#s#t#u#v#h.i#h#w#x#y#z#AQtQtQtQt",
"QtQtQtQt.g#B#C#D#E#F#G#r#H.c.i.i#I#J#K#L#M.i.i.i#N#O.gQtQtQtQtQt",
"QtQtQtQtQt.g.g.g#P#Q#R#S#S.c.i.i#I#T#U#V#W#X.i.i#Y.cQtQtQtQtQtQt",
"QtQtQtQtQtQtQtQt.g#Z#0#1#2.c.i.i#I#3#4#5#6#7.p.i.i#8.cQtQtQtQtQt",
"QtQtQtQtQtQtQtQt#9a.a#aa#2.c.i.iabacadaeafagah.i.i#C.cQtQtQtQtQt",
"QtQtQtQtQtQtQtQtaiajakalam.canaoapaqarasatauavawax.cQtQtQtQtQtQt",
"QtQtQtQtQtQtQtQt.gayazaAaBaCaDaEaFaGaHaIaJaKaL.c.cQtQtQtQtQtQtQt",
"QtQtQtQtQtQtQt.gaMaNaOaPaQaRaSaTaUaVaWaXaYaZa0.gQtQtQtQtQtQtQtQt",
"QtQtQtQtQtQtQt.ga1a2.g.g.g.ga3a4a5a6.g.ga7.ga8a9.gQtQtQtQtQtQtQt",
"QtQtQtQtQtQtQtQt.g.gQtQtQtQt.gb.b#.gQtQtQtQt.g.gQtQtQtQtQtQtQtQt",
"QtQtQtQtQtQtQtQtQtQtQtQtQtQt.gba#D.gQtQtQtQtQtQtQtQtQtQtQtQtQtQt",
"QtQtQtQtQtQtQtQtQtQtQtQtQtQt.gbbbc.gQtQtQtQtQtQtQtQtQtQtQtQtQtQt",
"QtQtQtQtQtQtQtQtQtQtQtQtQtQtQt.g.gQtQtQtQtQtQtQtQtQtQtQtQtQtQtQt",
"QtQtQtQtQtQtQtQtQtQtQtQtQtQtQtQtQtQtQtQtQtQtQtQtQtQtQtQtQtQtQtQt",
"QtQtQtQtQtQtQtQtQtQtQtQtQtQtQtQtQtQtQtQtQtQtQtQtQtQtQtQtQtQtQtQt",
"QtQtQtQtQtQtQtQtQtQtQtQtQtQtQtQtQtQtQtQtQtQtQtQtQtQtQtQtQtQtQtQt",
"QtQtQtQtQtQtQtQtQtQtQtQtQtQtQtQtQtQtQtQtQtQtQtQtQtQtQtQtQtQtQtQt"};
