/* XPM */
static char * eclipse_xpm[] = {
"22 22 456 2",
"  	c None",
". 	c #392E7E",
"+ 	c #2A2370",
"@ 	c #2B2373",
"# 	c #2E2377",
"$ 	c #2F2378",
"% 	c #33267C",
"& 	c #36267F",
"* 	c #37267F",
"= 	c #38257F",
"- 	c #38257D",
"; 	c #39257D",
"> 	c #37237A",
", 	c #362176",
"' 	c #332174",
") 	c #322173",
"! 	c #311F6F",
"~ 	c #2F1E6C",
"{ 	c #2E1E6A",
"] 	c #2C1D68",
"^ 	c #2D1E66",
"/ 	c #3B2B79",
"( 	c #120F5A",
"_ 	c #15105F",
": 	c #1A1166",
"< 	c #21136C",
"[ 	c #271772",
"} 	c #2E1B78",
"| 	c #331B79",
"1 	c #331877",
"2 	c #331777",
"3 	c #371773",
"4 	c #2E126D",
"5 	c #2A0F66",
"6 	c #260D62",
"7 	c #250C5F",
"8 	c #1E0755",
"9 	c #1C064F",
"0 	c #19064C",
"a 	c #150548",
"b 	c #160545",
"c 	c #2F2167",
"d 	c #151160",
"e 	c #1D1568",
"f 	c #23156E",
"g 	c #2C1A76",
"h 	c #36247C",
"i 	c #402282",
"j 	c #472384",
"k 	c #462182",
"l 	c #451F80",
"m 	c #3C1776",
"n 	c #37146F",
"o 	c #36136B",
"p 	c #301061",
"q 	c #260A59",
"r 	c #230853",
"s 	c #1E064E",
"t 	c #1C0649",
"u 	c #1B0747",
"v 	c #311F68",
"w 	c #2D2475",
"x 	c #191465",
"y 	c #25186F",
"z 	c #35247C",
"A 	c #453288",
"B 	c #593F95",
"C 	c #5F4298",
"D 	c #5D3493",
"E 	c #623996",
"F 	c #683F9A",
"G 	c #5A3290",
"H 	c #452683",
"I 	c #3B2175",
"J 	c #391D70",
"K 	c #3B1C6D",
"L 	c #351365",
"M 	c #2F0E5D",
"N 	c #2A0C56",
"O 	c #270A50",
"P 	c #25094D",
"Q 	c #1D0748",
"R 	c #302B79",
"S 	c #20176A",
"T 	c #2B1C73",
"U 	c #483388",
"V 	c #7461A5",
"W 	c #A086BD",
"X 	c #9A7DBC",
"Y 	c #9279BF",
"Z 	c #7867B3",
"` 	c #50428F",
" .	c #3F377D",
"..	c #393378",
"+.	c #383175",
"@.	c #342D6F",
"#.	c #332867",
"$.	c #311F60",
"%.	c #31155D",
"&.	c #31125C",
"*.	c #2E0F57",
"=.	c #26084C",
"-.	c #200749",
";.	c #311F69",
">.	c #34307D",
",.	c #231E6F",
"'.	c #35247A",
").	c #A085BD",
"!.	c #F1EAF2",
"~.	c #E9E1EF",
"{.	c #887DBB",
"].	c #4E518C",
"^.	c #464482",
"/.	c #464283",
"(.	c #443D80",
"_.	c #403A7D",
":.	c #3D3779",
"<.	c #3B3272",
"[.	c #382D6A",
"}.	c #30255E",
"|.	c #2E1D5B",
"1.	c #2B0F55",
"2.	c #27084D",
"3.	c #23084A",
"4.	c #35206A",
"5.	c #383180",
"6.	c #2B2576",
"7.	c #3A3383",
"8.	c #5C3F96",
"9.	c #9678BA",
"0.	c #EAE3F1",
"a.	c #B6A4CB",
"b.	c #6A669D",
"c.	c #56558D",
"d.	c #514E8A",
"e.	c #4C4786",
"f.	c #494083",
"g.	c #463D7F",
"h.	c #43387C",
"i.	c #413578",
"j.	c #3F3372",
"k.	c #382D69",
"l.	c #30255D",
"m.	c #2E1953",
"n.	c #290C50",
"o.	c #26094C",
"p.	c #36206B",
"q.	c #392E82",
"r.	c #3E2F7F",
"s.	c #503A8A",
"t.	c #592E8F",
"u.	c #9A86C8",
"v.	c #998DCC",
"w.	c #69669B",
"x.	c #5B5D91",
"y.	c #57578D",
"z.	c #55538B",
"A.	c #4F4C87",
"B.	c #4A4281",
"C.	c #473D7E",
"D.	c #45397C",
"E.	c #433777",
"F.	c #413473",
"G.	c #3F326D",
"H.	c #3A2D62",
"I.	c #332354",
"J.	c #2C1452",
"K.	c #2A0B50",
"L.	c #38216D",
"M.	c #33257C",
"N.	c #311771",
"O.	c #462380",
"P.	c #6B479D",
"Q.	c #9997E0",
"R.	c #5B509B",
"S.	c #4D4D87",
"T.	c #54528B",
"U.	c #463A7C",
"V.	c #443777",
"W.	c #423573",
"X.	c #403370",
"Y.	c #3D3069",
"Z.	c #36295B",
"`.	c #301C51",
" +	c #2B1255",
".+	c #3A2570",
"++	c #2F136E",
"@+	c #3C1475",
"#+	c #7959AE",
"$+	c #8279CB",
"%+	c #3F3884",
"&+	c #494589",
"*+	c #4E4B8C",
"=+	c #504D8B",
"-+	c #504D89",
";+	c #473B80",
">+	c #463A7E",
",+	c #44397A",
"'+	c #433675",
")+	c #403471",
"!+	c #3E316B",
"~+	c #392D60",
"{+	c #31224E",
"]+	c #2D195A",
"^+	c #3A2671",
"/+	c #4B419B",
"(+	c #5045A6",
"_+	c #5442A6",
":+	c #8884D3",
"<+	c #7571CE",
"[+	c #5155A7",
"}+	c #595AAD",
"|+	c #5A5CAE",
"1+	c #5A5AAB",
"2+	c #5857A7",
"3+	c #5854A5",
"4+	c #5550A0",
"5+	c #554F9F",
"6+	c #534E9B",
"7+	c #514C96",
"8+	c #504B94",
"9+	c #4E478E",
"0+	c #4A4384",
"a+	c #433B71",
"b+	c #3F347B",
"c+	c #433585",
"d+	c #51499D",
"e+	c #5A56A9",
"f+	c #5B51A9",
"g+	c #938FDA",
"h+	c #716CC5",
"i+	c #4F50A1",
"j+	c #5655A6",
"k+	c #5655A7",
"l+	c #5756A5",
"m+	c #5552A1",
"n+	c #5651A0",
"o+	c #544F9E",
"p+	c #524D98",
"q+	c #524C97",
"r+	c #4F4990",
"s+	c #4D488D",
"t+	c #4A4485",
"u+	c #453F7A",
"v+	c #3E3866",
"w+	c #3B3276",
"x+	c #3F3382",
"y+	c #4A4199",
"z+	c #4D46A3",
"A+	c #4E40A2",
"B+	c #7F7CCC",
"C+	c #726FCD",
"D+	c #5051A6",
"E+	c #5757AB",
"F+	c #5957AC",
"G+	c #5957AA",
"H+	c #5855A6",
"I+	c #5754A5",
"J+	c #5652A2",
"K+	c #55519F",
"L+	c #54509D",
"M+	c #524E98",
"N+	c #514D95",
"O+	c #4E4A90",
"P+	c #4C4687",
"Q+	c #474179",
"R+	c #3D3869",
"S+	c #3C3484",
"T+	c #403585",
"U+	c #3B2E81",
"V+	c #312377",
"W+	c #36217B",
"X+	c #674EA8",
"Y+	c #7772C9",
"Z+	c #433985",
"`+	c #48428A",
" @	c #4B448C",
".@	c #4C438B",
"+@	c #4B428A",
"@@	c #4B4186",
"#@	c #4B4185",
"$@	c #4B4182",
"%@	c #4A4080",
"&@	c #49417D",
"*@	c #483F78",
"=@	c #433C6D",
"-@	c #3E3663",
";@	c #362F52",
">@	c #2D2749",
",@	c #2C246B",
"'@	c #392C79",
")@	c #2E2171",
"!@	c #200E5E",
"~@	c #35226F",
"{@	c #553D87",
"]@	c #8D8BD4",
"^@	c #422E7A",
"/@	c #3A306F",
"(@	c #413474",
"_@	c #423575",
":@	c #423574",
"<@	c #433471",
"[@	c #43356F",
"}@	c #43346C",
"|@	c #43356A",
"1@	c #413566",
"2@	c #3D335D",
"3@	c #382E52",
"4@	c #322945",
"5@	c #261F30",
"6@	c #221C49",
"7@	c #21155A",
"8@	c #32246E",
"9@	c #483D86",
"0@	c #4C4684",
"a@	c #433577",
"b@	c #2A1162",
"c@	c #725EA6",
"d@	c #6156A7",
"e@	c #352764",
"f@	c #3D316D",
"g@	c #41326E",
"h@	c #42326E",
"i@	c #42326C",
"j@	c #44336A",
"k@	c #433367",
"l@	c #403462",
"m@	c #3D325D",
"n@	c #322946",
"o@	c #2A2338",
"p@	c #221D32",
"q@	c #1F175A",
"r@	c #1D1254",
"s@	c #32246D",
"t@	c #332975",
"u@	c #190D56",
"v@	c #1B0955",
"w@	c #220857",
"x@	c #220C5C",
"y@	c #8378BF",
"z@	c #493480",
"A@	c #362960",
"B@	c #3E2F66",
"C@	c #403068",
"D@	c #413066",
"E@	c #413164",
"F@	c #3E3160",
"G@	c #3B3158",
"H@	c #372D51",
"I@	c #2A2339",
"J@	c #211C2A",
"K@	c #201954",
"L@	c #1B1051",
"M@	c #1C1050",
"N@	c #271D69",
"O@	c #0C054B",
"P@	c #13064F",
"Q@	c #1B0752",
"R@	c #2C1961",
"S@	c #4B3B7F",
"T@	c #7565AE",
"U@	c #4D3B81",
"V@	c #36275A",
"W@	c #3B2C5E",
"X@	c #3D2D5F",
"Y@	c #3B2D5B",
"Z@	c #382D54",
"`@	c #352B4C",
" #	c #2E263F",
".#	c #272033",
"+#	c #221D31",
"@#	c #201956",
"##	c #170A4E",
"$#	c #160A4C",
"%#	c #190D4C",
"&#	c #31236D",
"*#	c #251D67",
"=#	c #070447",
"-#	c #0E064C",
";#	c #281D5E",
">#	c #473D7A",
",#	c #200B54",
"'#	c #260C59",
")#	c #57418E",
"!#	c #634F98",
"~#	c #42306D",
"{#	c #342753",
"]#	c #32234B",
"^#	c #2D2342",
"/#	c #272038",
"(#	c #231D35",
"_#	c #201A46",
":#	c #1A1356",
"<#	c #15084B",
"[#	c #120444",
"}#	c #110441",
"|#	c #160A44",
"1#	c #2F2169",
"2#	c #241E64",
"3#	c #040542",
"4#	c #191556",
"5#	c #3C3472",
"6#	c #1B0E50",
"7#	c #16064C",
"8#	c #17064F",
"9#	c #25125A",
"0#	c #321A65",
"a#	c #351F6A",
"b#	c #2D1C69",
"c#	c #25155C",
"d#	c #211556",
"e#	c #1E1456",
"f#	c #1B1155",
"g#	c #140A4F",
"h#	c #100547",
"i#	c #0E0342",
"j#	c #0F033D",
"k#	c #0E023A",
"l#	c #12073D",
"m#	c #2E2166",
"n#	c #241F62",
"o#	c #11144C",
"p#	c #2D2B69",
"q#	c #0E0949",
"r#	c #0A0446",
"s#	c #0E0447",
"t#	c #12064A",
"u#	c #201256",
"v#	c #17094E",
"w#	c #15064B",
"x#	c #15064C",
"y#	c #110649",
"z#	c #0E0446",
"A#	c #0D0343",
"B#	c #0D023F",
"C#	c #0D013C",
"D#	c #0D0139",
"E#	c #0D0235",
"F#	c #0E0336",
"G#	c #2B1E61",
"H#	c #382F79",
"I#	c #373277",
"J#	c #282168",
"K#	c #251D66",
"L#	c #261D67",
"M#	c #2A1F69",
"N#	c #2E226C",
"O#	c #2A1D68",
"P#	c #291D68",
"Q#	c #281D67",
"R#	c #281C65",
"S#	c #281C64",
"T#	c #291C62",
"U#	c #291C61",
"V#	c #291C5E",
"W#	c #392A75",
". + @ # $ % & * * = - ; > , ' ) ! ~ { ] ^ / ",
"+ ( _ : < [ } | 1 1 2 3 4 5 6 7 8 9 0 a b c ",
"@ d e f g h i j j j k l m n o p q r s t u v ",
"w x y z A B C D E F G H I J K L M N O P Q v ",
"R S T U V W X Y Z `  ...+.@.#.$.%.&.*.=.-.;.",
">.,.'.B ).!.~.{.].^./.(._.:.<.[.}.|.1.2.3.4.",
"5.6.7.8.9.0.a.b.c.d.e.f.g.h.i.j.k.l.m.n.o.p.",
"q.r.s.t.u.v.w.x.y.z.A.B.C.D.E.F.G.H.I.J.K.L.",
"M.N.O.P.Q.R.S.T.z.T.A.B.C.U.V.W.X.Y.Z.`. +.+",
"'.++@+#+$+%+&+*+=+-+e.f.;+>+,+'+)+!+~+{+]+^+",
"/+(+_+:+<+[+}+|+|+1+2+3+4+5+6+7+8+9+0+a+b+c+",
"d+e+f+g+h+i+j+k+l+m+n+o+p+q+8+r+s+t+u+v+w+x+",
"y+z+A+B+C+D+E+F+G+H+I+J+K+L+M+N+O+P+Q+R+S+T+",
"U+V+W+X+Y+Z+`+ @.@+@@@#@$@%@&@*@=@-@;@>@,@'@",
")@!@~@{@]@^@/@(@_@:@<@[@}@|@1@2@3@4@5@6@7@8@",
"9@0@a@b@c@d@e@f@g@h@i@j@k@l@m@3@n@o@p@q@r@s@",
"t@u@v@w@x@y@z@A@B@C@D@E@F@G@H@n@I@J@K@L@M@s@",
"N@O@P@Q@R@S@T@U@V@W@X@Y@Z@`@ #.#+#@###$#%#&#",
"*#=#-#;#>#,#'#)#!#~#{#]#^#/#(#_#:#<#[#}#|#1#",
"2#3#4#5#6#7#8#9#0#a#b#c#d#e#f#g#h#i#j#k#l#m#",
"n#o#p#q#r#s#t#u#v#w#x#x#x#y#z#A#B#C#D#E#F#G#",
"H#I#J#2#K#L#M#N#O#O#O#O#P#Q#R#S#T#U#V#V#V#W#"};
