/* XPM */
static char * gnome_xpm[] = {
"22 22 140 2",
"  	c None",
". 	c #B8B3A6",
"+ 	c #E5E7E3",
"@ 	c #BEB8B0",
"# 	c #6B6660",
"$ 	c #EFF1ED",
"% 	c #B7B0A7",
"& 	c #413D3A",
"* 	c #E3E0DA",
"= 	c #B6AFA6",
"- 	c #4F4F4E",
"; 	c #0E1113",
"> 	c #C9C5C0",
", 	c #827D74",
"' 	c #292B2B",
") 	c #A8A29A",
"! 	c #736E65",
"~ 	c #333534",
"{ 	c #181C20",
"] 	c #5C5B59",
"^ 	c #262A29",
"/ 	c #232720",
"( 	c #D8D8D4",
"_ 	c #DBDFDB",
": 	c #B5B0A9",
"< 	c #2C2D2D",
"[ 	c #DBDCD9",
"} 	c #CECDC8",
"| 	c #414242",
"1 	c #F5F4F4",
"2 	c #E3DFD9",
"3 	c #D6D4CA",
"4 	c #BEBAB3",
"5 	c #ABA89F",
"6 	c #9E9790",
"7 	c #25292B",
"8 	c #DDDBD7",
"9 	c #C7C1BA",
"0 	c #C0BAAF",
"a 	c #C7C0B7",
"b 	c #B8B3A8",
"c 	c #55524E",
"d 	c #272A2C",
"e 	c #959288",
"f 	c #6F6D62",
"g 	c #ECEBE9",
"h 	c #D4D2CA",
"i 	c #CEC8BE",
"j 	c #CFC8C0",
"k 	c #CEC7BE",
"l 	c #ACA59C",
"m 	c #363738",
"n 	c #2D2F30",
"o 	c #202325",
"p 	c #E3E4E0",
"q 	c #DDDAD4",
"r 	c #CFCAC2",
"s 	c #CBC6BC",
"t 	c #B4B1A5",
"u 	c #3E3E3A",
"v 	c #D6D2CE",
"w 	c #DFDDD4",
"x 	c #D0CDC2",
"y 	c #C5BEB6",
"z 	c #6C6A67",
"A 	c #E4E4E0",
"B 	c #E0DDD8",
"C 	c #DDDED8",
"D 	c #EAEAE6",
"E 	c #CAC3BC",
"F 	c #AFA79F",
"G 	c #39393A",
"H 	c #E2DED9",
"I 	c #E4E5E2",
"J 	c #CFCBC6",
"K 	c #7B7975",
"L 	c #E7E9E6",
"M 	c #E0DED8",
"N 	c #D1CAC3",
"O 	c #A29990",
"P 	c #313334",
"Q 	c #E6E4E1",
"R 	c #D1CCC5",
"S 	c #ADA89F",
"T 	c #2A2D2E",
"U 	c #D2CBC2",
"V 	c #CEC7C1",
"W 	c #B2ACA1",
"X 	c #7A7571",
"Y 	c #E4E5E0",
"Z 	c #C8C1B8",
"` 	c #98908A",
" .	c #1C2024",
"..	c #C7C4BC",
"+.	c #CDC7C2",
"@.	c #C5BCB3",
"#.	c #B0AAA0",
"$.	c #B9B0A6",
"%.	c #DFDAD4",
"&.	c #E2E3DC",
"*.	c #F1F5F1",
"=.	c #E7E7E0",
"-.	c #C8C1BA",
";.	c #7D7673",
">.	c #25292D",
",.	c #C6C0B6",
"'.	c #C4BCB3",
").	c #C8BDB2",
"!.	c #D5CFC8",
"~.	c #DBD7D2",
"{.	c #DEDED7",
"].	c #F2F1ED",
"^.	c #DEDCD4",
"/.	c #B1ABA3",
"(.	c #363737",
"_.	c #938F83",
":.	c #A9A398",
"<.	c #C3BBB1",
"[.	c #BFB7AE",
"}.	c #CBC4BA",
"|.	c #D1CDC3",
"1.	c #BFB7AC",
"2.	c #5F5E5B",
"3.	c #999088",
"4.	c #948D85",
"5.	c #ACA69D",
"6.	c #B4ADA4",
"7.	c #B8B0A8",
"8.	c #B6AFA7",
"9.	c #4C4D4C",
"0.	c #2D302C",
"a.	c #6A6A62",
"b.	c #726B66",
"c.	c #69635F",
"d.	c #696862",
"e.	c #585754",
"f.	c #303334",
"g.	c #676B6B",
"h.	c #535757",
"i.	c #565A5B",
"                                            ",
"                      .                     ",
"                    + @ #                   ",
"            $ % &   * = - ;                 ",
"            > , '   ) ! ~ {                 ",
"            ] ^ {     / {                   ",
"        (                                   ",
"      _ : <           [ }                   ",
"        | {     1 2 3 4 5 6 7               ",
"                8 9 0 a b c d               ",
"        e f   g h i j k l m n               ",
"        o   p q r s t u { {                 ",
"            v w x y z {         A B         ",
"            C D E F G         H I J K       ",
"            L M N O P         Q R S T       ",
"              U V W X         Y Z `  .      ",
"              ..+.@.#.$.%.&.*.=.-.;.>.      ",
"                ,.'.).!.~.{.].^./.(.        ",
"                _.:.<.j [.}.|.1.2.{         ",
"                  3.4.5.6.7.8.9.0.          ",
"                    a.b.c.d.e.f.            ",
"                        g.h.i.              "};
