/* XPM */
static char * GNUstepGlow_xpm[] = {
"22 22 159 2",
"  	c None",
". 	c #0D0F0E",
"+ 	c #0A0A0A",
"@ 	c #050505",
"# 	c #040404",
"$ 	c #020302",
"% 	c #070C0B",
"& 	c #101010",
"* 	c #161616",
"= 	c #1A1A1A",
"- 	c #181818",
"; 	c #111212",
"> 	c #090909",
", 	c #020303",
"' 	c #000101",
") 	c #09090A",
"! 	c #1D1D1D",
"~ 	c #272727",
"{ 	c #2E2E2E",
"] 	c #323232",
"^ 	c #333333",
"/ 	c #303030",
"( 	c #292929",
"_ 	c #262626",
": 	c #454545",
"< 	c #464646",
"[ 	c #535453",
"} 	c #121A1A",
"| 	c #131313",
"1 	c #252525",
"2 	c #3B3B3B",
"3 	c #3F3F3F",
"4 	c #414141",
"5 	c #404040",
"6 	c #3D3D3D",
"7 	c #313131",
"8 	c #373737",
"9 	c #CFCFCF",
"0 	c #E0E0E0",
"a 	c #E2E2E2",
"b 	c #C0C1C1",
"c 	c #181919",
"d 	c #000000",
"e 	c #111111",
"f 	c #242424",
"g 	c #474747",
"h 	c #484848",
"i 	c #434343",
"j 	c #343434",
"k 	c #DDDDDD",
"l 	c #EFEFEF",
"m 	c #F1F1F1",
"n 	c #ECECEC",
"o 	c #7B7B7B",
"p 	c #020202",
"q 	c #1A1D1D",
"r 	c #1B1B1B",
"s 	c #424242",
"t 	c #4A4A4A",
"u 	c #4B4B4B",
"v 	c #4C4C4C",
"w 	c #3A3A3A",
"x 	c #E3E3E3",
"y 	c #F7F7F7",
"z 	c #F9F9F9",
"A 	c #F4F4F4",
"B 	c #CACACA",
"C 	c #212121",
"D 	c #3E3E3E",
"E 	c #494949",
"F 	c #4D4D4D",
"G 	c #E5E5E5",
"H 	c #F8F8F8",
"I 	c #FBFBFB",
"J 	c #F5F5F5",
"K 	c #E6E6E6",
"L 	c #5A5A5A",
"M 	c #1D1E1E",
"N 	c #4E4E4E",
"O 	c #F3F3F3",
"P 	c #F0F0F0",
"Q 	c #878787",
"R 	c #1B1C1C",
"S 	c #D7D7D7",
"T 	c #E8E8E8",
"U 	c #EAEAEA",
"V 	c #9A9A9A",
"W 	c #222222",
"X 	c #444444",
"Y 	c #2F2F2F",
"Z 	c #888888",
"` 	c #939393",
" .	c #9E9E9E",
"..	c #ABABAB",
"+.	c #BABABA",
"@.	c #C8C8C8",
"#.	c #D3D3D3",
"$.	c #D9D9D9",
"%.	c #DBDBDB",
"&.	c #7E7E7E",
"*.	c #3C3C3C",
"=.	c #4F4F4F",
"-.	c #232323",
";.	c #868686",
">.	c #8F8F8F",
",.	c #979797",
"'.	c #A2A2A2",
").	c #ADADAD",
"!.	c #B8B8B8",
"~.	c #C2C2C2",
"{.	c #C9C9C9",
"].	c #C6C6C6",
"^.	c #BCBCBC",
"/.	c #252526",
"(.	c #393939",
"_.	c #8B8B8B",
":.	c #919191",
"<.	c #999999",
"[.	c #A1A1A1",
"}.	c #A9A9A9",
"|.	c #B0B0B0",
"1.	c #B5B5B5",
"2.	c #B6B6B6",
"3.	c #B3B3B3",
"4.	c #9B9B9B",
"5.	c #1E1E1E",
"6.	c #353737",
"7.	c #8A8A8A",
"8.	c #8C8C8C",
"9.	c #909090",
"0.	c #969696",
"a.	c #9C9C9C",
"b.	c #A4A4A4",
"c.	c #A5A5A5",
"d.	c #A3A3A3",
"e.	c #606060",
"f.	c #484A4C",
"g.	c #202020",
"h.	c #8E8E8E",
"i.	c #929292",
"j.	c #959595",
"k.	c #989898",
"l.	c #171717",
"m.	c #2A3233",
"n.	c #535454",
"o.	c #6B6B6B",
"p.	c #686868",
"q.	c #898989",
"r.	c #8D8D8D",
"s.	c #010101",
"t.	c #060606",
"u.	c #141414",
"v.	c #6C6C6C",
"w.	c #767676",
"x.	c #585858",
"y.	c #030303",
"z.	c #5E5E5E",
"A.	c #656565",
"B.	c #1F1F1F",
"                                            ",
"                                            ",
"              . + @ # $ # $                 ",
"          % + & * = = - ; > , '             ",
"        ) & ! ~ { ] ^ / ( _ : < [           ",
"      } | 1 ^ 2 3 4 5 6 7 8 9 0 a b c d     ",
"      e f 8 4 : g h g i j ] k l m n o p     ",
"    q r ^ s h t u v t g w ^ x y z A B C     ",
"    e ~ D E v F F F v E 6 j G H I J K L     ",
"    M 7 : v N N N N F t 3 ^ 0 O J P K Q     ",
"    R 8 E N F < < u F N h s S T U K k V     ",
"    W 2 u N X Y Z `  ...+.@.#.$.%.S 9 &.    ",
"    ! *.v =.3 -.;.>.,.'.).!.~.@.{.].^.=.    ",
"    /.(.v N 4 W ;._.:.<.[.}.|.1.2.3.4.5.    ",
"      6.v =.s C ;.7.8.9.0.a.[.b.c.d.e.p     ",
"      f.: v i g.;.7.7._.h.i.j.,.k.Q l.d     ",
"      m.n.o.o.p.q.7.7.7.7._.8.r.q.{ s.s.    ",
"    p t.u.v.7._._.7.7.7.7.7.7.&.Y s.# s.    ",
"    | (.- + : w.Z 7.7.7.q.&.x.= s.@ y.s.    ",
"    | w (.& s.u.(.z.o.A.: B.y.s.t.@ p d     ",
"                                            ",
"                                            "};
