/* XPM */
static char * kde_xpm[] = {
"22 22 185 2",
"  	c None",
". 	c #252426",
"+ 	c #272728",
"@ 	c #555454",
"# 	c #C2C2C0",
"$ 	c #C5C5C2",
"% 	c #393939",
"& 	c #676666",
"* 	c #6A6969",
"= 	c #131313",
"- 	c #FEFEFC",
"; 	c #E6E6E5",
"> 	c #3A3A3A",
", 	c #898988",
"' 	c #FDFDFB",
") 	c #FBFBF9",
"! 	c #888787",
"~ 	c #949392",
"{ 	c #EDEDEB",
"] 	c #D1D1CF",
"^ 	c #7A7A79",
"/ 	c #989897",
"( 	c #9A9A9A",
"_ 	c #202121",
": 	c #76736F",
"< 	c #222120",
"[ 	c #5D5D5C",
"} 	c #636060",
"| 	c #7B7A7A",
"1 	c #E8E7E6",
"2 	c #DCDCDA",
"3 	c #777675",
"4 	c #9E9E9E",
"5 	c #E4E2E1",
"6 	c #D6D4D1",
"7 	c #A5A39D",
"8 	c #252524",
"9 	c #E8E8E6",
"0 	c #5D5C5A",
"a 	c #6B6A67",
"b 	c #D1D2D0",
"c 	c #E0E0DF",
"d 	c #646363",
"e 	c #1E1E1E",
"f 	c #D7D5D5",
"g 	c #B1ADAB",
"h 	c #88847F",
"i 	c #242423",
"j 	c #F3F4F2",
"k 	c #AEAFAC",
"l 	c #CECECA",
"m 	c #FAFAF8",
"n 	c #F9F9F7",
"o 	c #747473",
"p 	c #1C1C1C",
"q 	c #BDBCB9",
"r 	c #AAA7A5",
"s 	c #C7C6C5",
"t 	c #2F2F2E",
"u 	c #FCFDFB",
"v 	c #F5F5F3",
"w 	c #E9E9E7",
"x 	c #656465",
"y 	c #0D0D0C",
"z 	c #A29D99",
"A 	c #D5D3D1",
"B 	c #DDDDDB",
"C 	c #30302F",
"D 	c #E5E3E3",
"E 	c #F4F5F3",
"F 	c #757575",
"G 	c #393737",
"H 	c #454544",
"I 	c #40403E",
"J 	c #ACA9A5",
"K 	c #ADA698",
"L 	c #EDECE4",
"M 	c #E7E6D6",
"N 	c #454441",
"O 	c #F8F8F5",
"P 	c #B0AEAA",
"Q 	c #9E9C99",
"R 	c #F1F2F0",
"S 	c #EBEBE7",
"T 	c #7B7A78",
"U 	c #4E4C4A",
"V 	c #383635",
"W 	c #1A1A1A",
"X 	c #F6F6F3",
"Y 	c #E4E3DE",
"Z 	c #D4D1CC",
"` 	c #B3AC93",
" .	c #F2F0CE",
"..	c #EEE6BA",
"+.	c #76736C",
"@.	c #F7F7F5",
"#.	c #ADA89F",
"$.	c #74624B",
"%.	c #BDBAB4",
"&.	c #D2D2CF",
"*.	c #94928F",
"=.	c #726F6D",
"-.	c #403F3F",
";.	c #ACABA9",
">.	c #B3AC96",
",.	c #EBDCA4",
"'.	c #F5DDA2",
").	c #78736A",
"!.	c #F6F7F4",
"~.	c #AFAA9D",
"{.	c #9B7444",
"].	c #8B7860",
"^.	c #D3D3D1",
"/.	c #A8A8A5",
"(.	c #373635",
"_.	c #191919",
":.	c #B6B1A6",
"<.	c #D4B580",
"[.	c #D2A969",
"}.	c #706960",
"|.	c #AFA99C",
"1.	c #AF814A",
"2.	c #A27743",
"3.	c #8F8579",
"4.	c #EAEAE8",
"5.	c #ECECEA",
"6.	c #807F7E",
"7.	c #464442",
"8.	c #C3BEB8",
"9.	c #C3AF92",
"0.	c #C09963",
"a.	c #6E675E",
"b.	c #EEEEEE",
"c.	c #E1E0DE",
"d.	c #A39C91",
"e.	c #AB7D47",
"f.	c #C8995F",
"g.	c #867968",
"h.	c #A7A8A6",
"i.	c #F7F7F6",
"j.	c #DCDCDB",
"k.	c #81807F",
"l.	c #131211",
"m.	c #B8B6B0",
"n.	c #CDC9C3",
"o.	c #B2A38F",
"p.	c #635D58",
"q.	c #8A837E",
"r.	c #857C71",
"s.	c #7F6D59",
"t.	c #B18958",
"u.	c #D8C1A4",
"v.	c #B5B0AB",
"w.	c #737272",
"x.	c #939292",
"y.	c #838282",
"z.	c #969695",
"A.	c #D9D8D3",
"B.	c #BBB9B7",
"C.	c #BBBAB8",
"D.	c #ABA7A4",
"E.	c #BAAB9A",
"F.	c #C6B199",
"G.	c #CEBCA8",
"H.	c #D3C8BC",
"I.	c #BEBAB6",
"J.	c #9C9892",
"K.	c #8E8B86",
"L.	c #919191",
"M.	c #9C9C9C",
"N.	c #000000",
"O.	c #ABA9A6",
"P.	c #C8C6C8",
"Q.	c #A4A4A5",
"R.	c #0C0C0C",
"S.	c #1D1D1D",
"T.	c #201F1F",
"U.	c #7A7674",
"V.	c #6E6B67",
"W.	c #A6A29F",
"X.	c #2E2C2B",
"Y.	c #393938",
"Z.	c #CAC7C5",
"`.	c #383737",
" +	c #151515",
"                                            ",
"                    . +                     ",
"                  @ # $ %         & *       ",
"                  = - ; >       , ' ) !     ",
"                  = - ; >     ~ { ' ] ^     ",
"          / ( _ : < - ; [ } | 1 - 2 3       ",
"          4 5 6 7 8 - 9 0 a b ' c d         ",
"          e f g h i - j k l m n o           ",
"          p q r s t - u v m - w x           ",
"          y z A B C - ) D { - E F G         ",
"      H I J K L M N - O P Q R ' S T U V     ",
"    W X Y Z `  ...+.- @.#.$.%.m ' &.*.=.    ",
"      H -.;.>.,.'.).- !.~.{.].^.' m /.(.    ",
"          _.:.<.[.}.- @.|.1.2.3.4.- 5.6.    ",
"          7.8.9.0.a.b.c.d.e.f.g.h.i.j.k.    ",
"          l.m.n.o.p.q.r.s.t.u.v.w.x.y.      ",
"          z.A.B.C.D.E.F.G.H.I.J.K._.        ",
"          L.M.N.N.y O.P.Q.R.S.T.U.V.        ",
"                    t W.X.                  ",
"                    Y.Z.`.                  ",
"                       +                    ",
"                                            "};
